<?xml version="1.0" standalone="no"?>
<!DOCTYPE svg PUBLIC "-//W3C//DTD SVG 20010904//EN"
    "http://www.w3.org/TR/2001/REC-SVG-20010904/DTD/svg10.dtd">
<svg version="1.0" xmlns="http://www.w3.org/2000/svg"
     width="469.000000pt" height="469.000000pt" viewBox="0 0 469.000000 469.000000"
     preserveAspectRatio="xMidYMid meet">
    <metadata>
        Created by potrace 1.11, written by Peter Selinger 2001-2013
    </metadata>
    <g transform="translate(0.000000,469.000000) scale(0.100000,-0.100000)"
       fill="#000000" stroke="none">
        <path d="M1230 3830 c0 -5 -8 -10 -19 -10 -10 0 -24 -7 -31 -15 -7 -8 -18 -15
-24 -15 -6 0 -38 -14 -71 -30 -33 -16 -66 -30 -74 -30 -20 0 -131 -118 -131
-139 0 -10 -7 -24 -15 -31 -8 -7 -15 -21 -15 -30 0 -10 -4 -20 -8 -22 -10 -4
-102 -189 -102 -205 0 -6 -7 -13 -15 -17 -8 -3 -15 -14 -15 -24 0 -11 -7 -25
-15 -32 -8 -7 -15 -20 -15 -30 0 -10 -7 -23 -15 -30 -8 -7 -15 -21 -15 -30 0
-10 -3 -20 -7 -22 -5 -1 -18 -23 -31 -48 -13 -25 -34 -65 -48 -89 -13 -24 -24
-50 -24 -58 0 -7 -4 -13 -10 -13 -39 0 37 -106 93 -130 12 -6 29 -14 37 -19
42 -25 179 -71 210 -71 20 0 60 41 60 62 0 9 7 21 15 28 8 7 15 21 15 30 0 10
3 20 8 22 4 2 17 23 30 48 21 42 32 62 54 100 4 8 13 27 19 43 6 15 15 27 20
27 5 0 9 7 9 15 0 9 10 32 23 53 13 20 34 60 48 87 13 28 27 52 32 53 4 2 7
12 7 22 0 10 4 21 9 25 5 3 26 40 46 83 l37 77 -8 140 c-8 140 -12 213 -13
228 -1 11 -51 8 -51 -3z"/>
        <path d="M2902 3070 c-78 -35 -140 -107 -266 -308 -17 -28 -41 -49 -72 -63
-24 -12 -46 -20 -47 -18 -2 2 -15 23 -30 47 -29 44 -85 90 -137 112 -16 7 -30
15 -30 19 1 14 161 71 200 71 8 0 20 -10 25 -22 8 -19 18 -23 49 -22 70 3 88
49 50 126 -26 52 -129 60 -275 23 -66 -17 -164 -59 -174 -74 -9 -16 -25 -13
-25 4 0 35 -30 74 -66 85 -93 31 -366 -39 -409 -103 -21 -32 -10 -99 21 -137
13 -15 65 -49 114 -74 50 -26 90 -51 90 -56 0 -33 -113 -90 -179 -90 -48 0
-68 9 -54 24 15 14 10 62 -8 79 -38 36 -99 9 -99 -44 1 -39 34 -103 71 -133
60 -51 112 -64 204 -53 17 2 36 5 43 5 7 1 11 6 8 10 -3 5 5 8 17 8 13 -1 21
4 19 12 -1 8 2 11 8 7 10 -6 55 13 47 21 -3 3 6 16 19 29 64 64 -13 215 -142
278 -24 11 -44 23 -44 26 1 14 162 71 200 71 8 0 20 -10 25 -22 12 -28 46 -34
84 -15 32 16 41 9 41 -33 0 -34 49 -78 140 -124 50 -26 90 -51 90 -56 0 -33
-113 -90 -179 -90 -48 0 -68 9 -54 24 15 14 10 62 -8 79 -38 36 -99 9 -99 -44
1 -39 34 -103 71 -133 60 -51 112 -64 204 -53 17 2 36 5 43 5 7 1 11 6 8 10
-3 5 5 8 17 8 13 -1 21 4 19 12 -1 8 2 11 8 7 10 -6 55 13 47 21 -3 3 6 16 19
29 13 13 24 31 24 40 0 8 5 15 10 15 12 0 12 0 -1 -40 -11 -29 -9 -34 15 -57
28 -26 73 -38 92 -25 5 4 27 37 47 73 44 79 50 85 105 94 49 8 50 6 22 -66
-22 -55 -21 -79 5 -79 8 0 14 -6 13 -12 -2 -7 6 -13 17 -13 11 0 23 -4 27 -9
35 -50 178 238 178 359 0 62 -9 86 -48 128 -19 19 -23 30 -15 38 14 14 5 49
-13 49 -8 0 -14 6 -14 14 0 23 -25 25 -68 6z m-3 -253 c-19 -63 -22 -67 -49
-67 -17 0 -30 3 -30 6 0 8 93 134 96 131 2 -2 -6 -33 -17 -70z"/>
        <path d="M3207 3062 c-52 -58 -75 -183 -59 -331 l8 -84 -37 -48 c-21 -26 -43
-50 -49 -54 -15 -9 -12 -45 5 -51 8 -4 15 -12 15 -19 0 -18 21 -24 42 -13 14
7 16 5 11 -8 -5 -14 -3 -15 14 -6 11 6 23 9 27 5 10 -11 400 389 424 435 23
46 28 67 13 58 -4 -3 -6 5 -4 17 4 22 -45 87 -66 87 -5 0 -38 -32 -73 -72 -73
-83 -166 -178 -174 -178 -6 0 1 83 14 160 15 88 -61 158 -111 102z"/>
        <path d="M1350 3041 c-31 -5 -35 -9 -36 -41 -1 -19 2 -38 7 -41 5 -3 -8 -30
-29 -60 -81 -116 -192 -316 -192 -347 0 -28 62 -82 103 -89 24 -4 80 5 169 28
73 18 135 34 137 36 8 6 -31 53 -44 53 -8 0 -15 4 -15 10 0 15 -61 22 -113 12
-26 -5 -49 -6 -52 -2 -2 4 11 31 30 61 19 29 35 57 35 60 0 9 89 21 163 23 49
1 52 2 49 25 -6 43 -45 73 -100 79 l-50 4 15 37 c8 20 19 40 24 45 4 5 49 8
98 7 82 -1 90 0 96 19 12 36 -16 74 -60 82 -48 8 -186 8 -235 -1z"/>
        <path d="M484 2805 c-3 -14 -9 -25 -13 -25 -4 0 -18 -24 -30 -52 -13 -29 -26
-55 -30 -58 -3 -3 -14 -23 -25 -45 -10 -22 -22 -47 -27 -55 -41 -74 -79 -155
-79 -169 0 -21 19 -41 38 -41 30 0 178 -72 217 -106 33 -28 68 -41 73 -26 2 6
19 31 38 56 19 25 34 50 34 55 0 6 4 11 9 11 5 0 11 8 15 18 7 21 22 45 59 93
15 20 27 40 27 44 0 4 18 34 40 66 22 32 40 63 40 69 0 5 -12 12 -27 16 -16 3
-47 12 -71 20 -23 8 -49 14 -56 14 -41 0 -186 103 -186 132 0 4 -9 8 -20 8
-13 0 -22 -9 -26 -25z"/>
        <path d="M1081 2594 c0 -11 3 -14 6 -6 3 7 2 16 -1 19 -3 4 -6 -2 -5 -13z"/>
        <path d="M233 2334 c-3 -9 0 -32 6 -51 10 -26 10 -38 2 -46 -6 -6 -11 -17 -11
-24 0 -7 -32 -56 -72 -109 -69 -94 -72 -99 -80 -173 -15 -135 -20 -165 -33
-186 -19 -30 -26 -84 -15 -106 13 -23 62 -26 80 -4 7 8 27 15 44 15 18 0 36 4
41 9 12 12 206 34 290 34 89 0 289 -23 300 -34 5 -5 24 -9 43 -9 18 0 43 -5
55 -12 12 -6 38 -15 57 -19 37 -7 83 -23 137 -46 17 -7 36 -13 41 -13 6 0 34
-12 64 -26 29 -14 69 -33 88 -41 19 -8 48 -21 63 -29 16 -8 34 -14 42 -14 7 0
18 -7 25 -15 7 -8 21 -15 30 -15 10 0 20 -4 22 -8 2 -4 48 -29 103 -56 55 -26
107 -51 115 -56 8 -5 49 -26 90 -47 41 -21 92 -48 112 -60 21 -13 44 -23 52
-23 7 0 19 -7 26 -15 7 -8 23 -15 36 -15 13 0 24 -3 24 -8 0 -8 61 -37 255
-116 42 -18 95 -36 130 -46 17 -5 44 -13 60 -18 101 -34 139 -43 359 -82 33
-5 133 -10 222 -10 153 0 201 4 364 30 36 6 90 15 121 19 30 5 65 13 77 20 11
6 33 11 49 11 15 1 39 7 53 15 14 8 36 15 50 15 14 0 34 7 44 15 11 8 30 15
42 15 13 0 25 4 29 9 3 5 20 13 37 17 18 3 39 10 48 14 8 4 33 16 55 25 22 10
47 22 55 27 8 4 22 11 30 14 8 3 28 12 43 20 16 7 35 14 43 14 8 0 14 4 14 9
0 5 12 14 28 20 31 12 112 56 127 69 6 4 17 11 25 15 8 4 29 16 45 27 17 11
40 24 53 30 12 5 22 14 22 20 0 5 7 10 15 10 8 0 15 4 15 9 0 5 10 13 22 17
31 9 120 106 109 117 -10 10 -61 -19 -61 -34 0 -5 -5 -9 -11 -9 -6 0 -31 -13
-56 -30 -24 -16 -47 -30 -50 -30 -3 0 -21 -11 -39 -25 -18 -14 -39 -25 -47
-25 -8 0 -20 -7 -27 -15 -7 -8 -19 -15 -27 -15 -8 0 -21 -7 -29 -15 -9 -8 -24
-15 -35 -15 -10 0 -19 -4 -19 -10 0 -5 -5 -10 -11 -10 -6 0 -25 -6 -42 -14
-62 -26 -113 -45 -167 -62 -30 -9 -63 -21 -73 -26 -19 -9 -77 -23 -167 -39
-30 -6 -68 -14 -85 -19 -16 -5 -109 -15 -205 -21 -151 -11 -199 -10 -345 4
-193 19 -293 32 -339 46 -35 11 -100 27 -166 43 -25 5 -49 14 -54 19 -6 5 -22
9 -37 9 -15 0 -40 7 -55 15 -16 8 -39 15 -51 15 -12 0 -25 5 -28 10 -3 6 -14
10 -23 10 -9 0 -30 7 -46 15 -15 8 -36 15 -45 15 -10 0 -26 7 -37 15 -10 8
-29 15 -40 15 -12 0 -27 7 -34 15 -7 8 -21 15 -30 15 -10 0 -31 6 -47 14 -15
8 -44 21 -63 29 -19 8 -60 26 -90 40 -30 14 -65 28 -77 32 -13 3 -23 11 -23
16 0 5 -7 9 -16 9 -9 0 -28 6 -42 14 -15 8 -81 40 -147 71 -66 31 -149 70
-185 87 -61 29 -90 41 -150 66 -82 34 -282 90 -365 102 -33 5 -91 14 -130 19
-100 15 -220 13 -290 -4 -33 -8 -75 -14 -94 -15 -32 0 -88 -15 -176 -48 -71
-26 -89 -34 -127 -53 -21 -11 -38 -15 -38 -9 0 5 3 10 8 10 4 0 19 10 32 23
30 26 118 87 126 87 30 0 114 114 114 155 0 7 7 18 15 25 8 7 15 20 15 30 0
10 7 23 15 30 8 7 15 20 15 28 0 23 60 72 88 72 33 0 30 44 -5 67 -16 10 -30
20 -33 24 -3 3 -49 27 -102 53 -102 48 -154 58 -165 30z m27 -349 c0 -19 -5
-35 -10 -35 -6 0 -21 -11 -33 -24 l-22 -24 0 50 c0 50 12 68 48 68 13 0 17 -8
17 -35z m-80 -110 c0 -8 -4 -15 -10 -15 -5 0 -7 7 -4 15 4 8 8 15 10 15 2 0 4
-7 4 -15z"/>
        <path d="M2782 2286 c-38 -40 -70 -92 -126 -207 -41 -85 -82 -176 -91 -204
l-16 -50 27 -21 c49 -40 68 -25 139 114 31 62 59 112 60 110 2 -2 -3 -37 -10
-78 -20 -110 -19 -141 5 -147 11 -3 20 -9 20 -14 0 -19 52 -8 73 15 12 13 49
64 82 112 32 49 64 92 70 96 5 4 6 8 1 8 -5 0 -1 9 9 20 30 33 33 23 14 -47
-27 -97 -25 -147 6 -167 49 -32 80 -14 89 51 3 29 7 39 71 178 52 113 68 170
55 195 -6 11 -17 20 -25 20 -8 0 -15 7 -15 15 0 16 -35 21 -44 6 -3 -4 -19
-11 -34 -14 -20 -4 -59 -38 -122 -104 -51 -54 -90 -89 -87 -78 15 49 18 136 7
167 -12 33 -66 78 -93 78 -8 0 -37 -24 -65 -54z"/>
        <path d="M2395 2288 c-57 -38 -122 -115 -181 -215 -32 -54 -50 -73 -88 -92
-42 -22 -46 -28 -41 -50 4 -15 11 -27 16 -29 10 -4 13 -32 4 -32 -4 0 -20 7
-37 16 -23 12 -45 14 -88 9 l-59 -7 35 66 c20 36 32 71 28 77 -4 7 -3 9 4 5 8
-5 63 86 68 114 1 6 12 35 25 69 11 27 -7 63 -42 82 -19 10 -27 4 -78 -48 -59
-61 -198 -301 -219 -376 -10 -36 -9 -40 20 -65 47 -42 68 -43 203 -10 l124 30
28 -20 c35 -24 65 -34 79 -24 6 4 25 32 43 63 17 31 39 63 49 71 15 13 92 33
92 23 0 -2 -10 -29 -22 -59 l-21 -57 24 -22 c14 -13 37 -22 57 -23 29 -1 36 5
58 42 14 23 40 81 59 128 27 67 35 100 35 151 0 58 -3 68 -31 100 -23 26 -29
39 -21 47 13 13 -4 52 -19 43 -5 -4 -8 -1 -7 7 6 27 -48 19 -97 -14z m35 -199
c-22 -72 -24 -75 -49 -63 -19 9 -18 12 17 66 20 31 40 57 44 57 3 1 -2 -26
-12 -60z"/>
        <path d="M1619 2290 c-103 -12 -149 -31 -149 -63 0 -27 16 -37 60 -37 l29 0
-27 -44 c-19 -32 -36 -47 -57 -52 -16 -3 -43 -13 -58 -21 -24 -12 -28 -19 -22
-41 3 -14 13 -31 22 -37 14 -10 13 -17 -11 -57 -26 -44 -34 -88 -17 -88 5 0
11 -9 14 -20 5 -20 47 -36 72 -26 8 3 20 18 27 33 6 15 20 37 29 48 9 11 28
42 41 70 21 46 27 50 68 58 25 4 67 6 94 3 l48 -5 -6 32 c-9 42 -15 47 -72 55
l-49 7 3 45 c2 25 8 49 13 54 9 10 98 11 129 1 17 -5 20 -2 20 22 0 16 -6 37
-12 46 -16 22 -88 28 -189 17z"/>
        <path d="M3401 2281 c-17 -11 -23 -51 -10 -67 6 -7 -7 -33 -33 -70 -47 -68
-152 -248 -162 -281 -9 -30 38 -82 84 -92 46 -10 280 45 280 65 0 8 -18 25
-40 40 -35 24 -45 25 -100 19 -33 -4 -60 -3 -60 2 0 4 13 27 30 51 16 24 30
47 32 52 2 5 46 12 99 16 92 6 96 8 91 28 -9 37 -49 66 -93 66 -44 0 -44 -1
-25 45 11 25 22 35 38 36 13 1 52 2 88 2 l65 2 -2 34 c0 18 -6 38 -13 45 -14
14 -249 21 -269 7z"/>
        <path d="M1081 2264 c0 -11 3 -14 6 -6 3 7 2 16 -1 19 -3 4 -6 -2 -5 -13z"/>
    </g>
</svg>
